<svg width="420" height="110" viewBox="0 0 420 110" fill="none" xmlns="http://www.w3.org/2000/svg">
<path d="M57.5836 72.1919C57.6453 72.3151 57.6761 72.4692 57.6761 72.6541C57.7377 72.7773 57.7685 72.9313 57.7685 73.1162C57.7685 73.3627 57.7069 73.5475 57.5836 73.6708C57.522 73.8556 57.368 73.9789 57.1215 74.0405L52.6849 75.1496C51.206 75.5194 49.7579 75.8891 48.3407 76.2588C48.1558 76.3204 48.0326 76.3512 47.9709 76.3512C47.7245 76.3512 47.5396 76.2896 47.4164 76.1664C47.2315 75.9815 47.0775 75.6426 46.9542 75.1496C46.5229 73.5475 46.1223 71.9146 45.7526 70.2509C45.3213 68.5871 44.9208 66.9542 44.5511 65.3521C44.1197 63.75 43.7192 62.1787 43.3495 60.6382C42.9181 59.0361 42.5176 57.4648 42.1479 55.9243C42.0863 55.6162 41.9939 55.4313 41.8706 55.3697C41.6858 55.2465 41.4701 55.1848 41.2236 55.1848C39.0053 55.2465 36.787 55.2465 34.5687 55.1848C32.2887 55.1848 30.0396 55.2156 27.8213 55.2773C26.1576 55.3389 24.463 55.3697 22.7377 55.3697H17.6541C17.4076 55.3697 17.2227 55.4005 17.0995 55.4621C16.9762 55.5854 16.8838 55.7394 16.8222 55.9243C15.7747 58.6972 14.7271 61.4393 13.6796 64.1505L10.537 72.2843C10.1672 73.2086 9.85914 73.7016 9.61266 73.7632C9.36618 73.8864 8.78079 73.7632 7.8565 73.3935L4.52904 72.0995C3.35826 71.6065 2.24911 71.1443 1.20158 70.713C0.585376 70.4665 0.21566 70.2201 0.0924301 69.9736C0.0308101 69.912 0 69.8195 0 69.6963C0 69.4498 0.0616202 69.1109 0.18486 68.6796C0.86268 67.0158 1.50968 65.3213 2.12588 63.5959C2.8037 61.9322 3.4507 60.2685 4.0669 58.6047C5.79225 54.1065 7.5176 49.639 9.24296 45.2024C10.9067 40.7658 12.6012 36.3292 14.3266 31.8926C16.2984 26.7165 18.2703 21.5713 20.2421 16.4568C22.2139 11.3424 24.1857 6.19715 26.1576 1.02109C26.2192 0.774608 26.3424 0.589747 26.5273 0.466507C26.7122 0.343267 26.9278 0.281647 27.1743 0.281647C28.7148 0.158407 30.2553 0.0967865 31.7958 0.0967865H32.9974C34.9692 0.158406 36.9102 0.189224 38.8204 0.189224C39.1285 0.127604 39.3442 0.220027 39.4674 0.466507C39.5291 0.651367 39.5599 0.836228 39.5599 1.02109C40.2377 3.5475 40.8847 6.07392 41.5009 8.60033C42.1787 11.1267 42.8257 13.6531 43.4419 16.1796C44.8592 21.6021 46.2456 27.0246 47.6012 32.4472L51.6681 48.7148C52.654 52.6584 53.64 56.5713 54.6259 60.4533C55.6118 64.3354 56.5977 68.2482 57.5836 72.1919V72.1919ZM35.3081 28.9349C34.8151 26.8398 34.2914 24.7447 33.7368 22.6496C33.2438 20.493 32.6893 18.3671 32.0731 16.272C32.0731 16.3336 32.0423 16.4261 31.9806 16.5493C31.919 16.6725 31.8574 16.765 31.7958 16.8266C30.9331 19.1681 30.0396 21.5097 29.1153 23.8512C28.2526 26.1928 27.3592 28.5652 26.4349 30.9683C25.6338 33.0018 24.8328 35.0968 24.0317 37.2535L21.6285 43.5387C21.4437 43.8468 21.382 44.0317 21.4437 44.0933C21.5053 44.2166 21.7209 44.2474 22.0907 44.1857C22.5836 44.1241 23.0458 44.0933 23.4771 44.0933H24.956C27.1743 44.0317 29.3926 44.0317 31.6109 44.0933C33.8908 44.0933 36.14 44.0625 38.3583 44.0009C38.6664 44.0009 38.882 43.9393 39.0053 43.816C39.0669 43.6928 39.0361 43.5079 38.9128 43.2614C38.2966 40.8583 37.7113 38.4859 37.1567 36.1444L35.3081 28.9349Z" fill="#FFC72C"/>
<path d="M98.2526 62.2095V61.8398C98.2526 61.7165 98.2218 61.5625 98.1602 61.3776C97.6673 61.8706 97.2051 62.3636 96.7738 62.8565C96.3424 63.2878 95.8803 63.7192 95.3873 64.1505C93.4155 65.9375 91.2896 67.5396 89.0097 68.9569C86.7914 70.3125 84.3574 71.3292 81.7077 72.007C79.9208 72.5 78.1338 72.7465 76.3468 72.7465C74.5599 72.8081 72.8037 72.5308 71.0783 71.9146C68.3054 70.8671 66.1179 69.3882 64.5158 67.478C62.8521 65.5062 61.7738 63.0722 61.2808 60.1761C61.0959 58.9437 61.0035 57.7113 61.0035 56.4789C61.0035 55.1232 61.1576 53.7676 61.4657 52.412C61.9586 49.9472 62.9445 47.544 64.4234 45.2025C66.1488 42.4912 68.1822 40.2113 70.5238 38.3627C72.8653 36.4525 75.6074 35.0044 78.75 34.0185C80.1056 33.5871 81.5229 33.3099 83.0018 33.1866C84.419 33.0018 85.8671 32.9401 87.3459 33.0018C89.1329 33.125 90.8891 33.4331 92.6144 33.9261C94.3398 34.419 96.0035 35.0968 97.6056 35.9595C97.9137 36.0827 98.0986 36.1444 98.1602 36.1444C98.2218 36.0827 98.2526 35.8979 98.2526 35.5898V28.4727V21.3556C98.3143 18.7676 98.3451 16.1796 98.3451 13.5915V5.64259C98.3451 5.21125 98.4067 4.90317 98.5299 4.71831C98.7148 4.53345 99.0537 4.44101 99.5467 4.44101H103.798H108.143C108.574 4.44101 108.851 4.50263 108.974 4.62587C109.098 4.81073 109.19 5.08801 109.252 5.45773V5.91989V6.38203V40.6734V75.0572V75.1496V75.2421C109.252 75.9199 109.159 76.3204 108.974 76.4437C108.79 76.5669 108.389 76.6285 107.773 76.6285H103.798H99.7315C99.0537 76.6285 98.6532 76.5669 98.53 76.4437C98.3451 76.2588 98.2527 75.7966 98.2527 75.0572V68.6796L98.2526 62.2095ZM94.9252 47.1435C93.5696 46.1576 92.1523 45.3873 90.6734 44.8327C89.1945 44.2165 87.6232 43.9701 85.9595 44.0933C85.4049 44.0317 84.8196 44.0317 84.2034 44.0933C83.5872 44.1549 83.0018 44.2474 82.4472 44.3706C80.6602 44.8636 79.0581 45.6646 77.6409 46.7738C76.2852 47.8213 75.0836 49.1461 74.0361 50.7482C73.235 51.7958 72.6497 52.9357 72.2799 54.1681C71.9102 55.4005 71.8178 56.7253 72.0027 58.1426C72.1259 59.0053 72.4648 59.7447 73.0194 60.3609C73.574 61.0387 74.2826 61.4701 75.1453 61.6549C75.8231 61.8398 76.4701 61.9014 77.0863 61.8398C77.7025 61.7165 78.3187 61.5625 78.9349 61.3776C80.7218 60.9463 82.3548 60.2377 83.8336 59.2518C85.3741 58.2658 86.7914 57.1567 88.0854 55.9243C89.3794 54.7535 90.581 53.4903 91.6902 52.1347L95.0176 48.0678C95.1408 47.8829 95.2025 47.6981 95.2025 47.5132C95.2025 47.39 95.11 47.2667 94.9252 47.1435V47.1435Z" fill="#FFC72C"/>
<path d="M129.032 26.5317C129.463 26.4085 129.925 26.316 130.418 26.2544C130.911 26.1928 131.373 26.162 131.805 26.162C134.084 26.2236 136.21 26.6549 138.182 27.456C140.216 28.257 142.064 29.4278 143.728 30.9683C145.946 32.8785 147.672 35.066 148.904 37.5308C150.136 39.934 150.968 42.5836 151.4 45.4797C151.646 47.0202 151.769 48.5299 151.769 50.0088C151.769 51.1796 151.677 52.3812 151.492 53.6135C151.184 56.2632 150.414 58.8204 149.181 61.2852C147.887 63.9348 146.254 66.2148 144.283 68.125C142.249 69.9736 139.815 71.2984 136.981 72.0995C135.317 72.5924 133.715 72.8389 132.174 72.8389C131.065 72.8389 129.987 72.7157 128.939 72.4692C126.351 71.9146 123.917 70.7746 121.637 69.0493C119.234 67.2007 117.355 65.0748 115.999 62.6716C114.643 60.2685 113.658 57.6188 113.041 54.7227C112.795 53.86 112.641 52.9665 112.579 52.0422C112.456 51.1179 112.394 50.1936 112.394 49.2693C112.456 46.25 112.918 43.3539 113.781 40.581C114.705 37.8081 116.153 35.2201 118.125 32.8169C119.542 31.0915 121.144 29.7051 122.931 28.6576C124.718 27.61 126.752 26.9014 129.032 26.5317L129.032 26.5317ZM137.905 58.7896C138.952 57.434 139.692 56.0167 140.123 54.5379C140.555 53.059 140.77 51.4877 140.77 49.8239C140.77 49.2077 140.739 48.5916 140.678 47.9754C140.616 47.3592 140.493 46.7738 140.308 46.2192C140 44.7403 139.507 43.3539 138.829 42.0599C138.09 40.7659 137.073 39.6259 135.779 38.64C134.608 37.7157 133.314 37.2535 131.897 37.2535C130.48 37.2535 129.155 37.7157 127.923 38.64C127.306 39.0713 126.783 39.5951 126.351 40.2113C125.858 40.7659 125.458 41.3821 125.15 42.0599C124.349 43.7236 123.825 45.3873 123.578 47.0511C123.332 48.7764 123.363 50.5326 123.671 52.3195C124.041 53.86 124.564 55.3081 125.242 56.6637C125.92 58.0194 126.875 59.221 128.107 60.2685C129.093 61.0079 130.11 61.4701 131.158 61.6549C132.205 61.9014 133.314 61.809 134.485 61.3776C135.163 61.1928 135.81 60.8539 136.426 60.3609C136.981 59.868 137.474 59.3442 137.905 58.7896H137.905Z" fill="#FFC72C"/>
<path d="M159.533 75.5194C159.41 74.9648 159.379 74.4102 159.441 73.8556C159.503 73.2394 159.503 72.6541 159.441 72.0995C159.379 70.3741 159.349 68.6796 159.349 67.0159C159.41 65.2905 159.41 63.5651 159.349 61.8398C159.287 60.669 159.256 59.4366 159.256 58.1426V54.4454C159.133 51.7958 159.071 49.1461 159.071 46.4965C159.01 43.9085 158.948 41.2896 158.886 38.64V34.8504C158.886 33.618 158.856 32.3856 158.794 31.1532C158.732 29.7359 158.702 28.3495 158.702 26.9939V22.927C158.702 22.6189 158.64 22.4032 158.517 22.28C158.393 22.2183 158.209 22.1875 157.962 22.1875C157.408 22.3724 156.884 22.4648 156.391 22.4648C155.836 22.4032 155.343 22.3724 154.912 22.3724L152.324 22.5572C151.461 22.6189 150.629 22.6497 149.828 22.6497C149.459 22.6497 149.212 22.5881 149.089 22.4648C148.904 22.3416 148.781 22.0951 148.719 21.7254C148.658 21.294 148.627 20.8319 148.627 20.3389C148.627 19.846 148.596 19.353 148.534 18.8601L148.349 15.9023C148.349 14.9164 148.319 13.9305 148.257 12.9446C148.257 12.6365 148.319 12.4208 148.442 12.2975C148.565 12.1127 148.781 11.9894 149.089 11.9278C149.459 11.8662 149.798 11.8354 150.106 11.8354C150.414 11.8354 150.753 11.8046 151.122 11.743C152.108 11.6813 153.063 11.6197 153.988 11.5581C154.974 11.4965 155.929 11.4657 156.853 11.4657C157.654 11.4657 158.116 11.4041 158.239 11.2808C158.363 11.1576 158.424 10.6954 158.424 9.89438V7.58363V5.2729C158.424 5.02642 158.455 4.81075 158.517 4.62589C158.64 4.50265 158.856 4.41022 159.164 4.3486H159.441H159.718C161.074 4.28698 162.43 4.25616 163.785 4.25616C165.202 4.25616 166.558 4.22536 167.852 4.16374C168.468 4.16374 168.869 4.25616 169.054 4.44102C169.177 4.56426 169.239 4.934 169.239 5.55019C169.3 6.10477 169.331 6.69014 169.331 7.30634C169.269 7.86092 169.239 8.4155 169.239 8.97008C169.239 9.83276 169.331 10.3565 169.516 10.5414C169.639 10.6646 170.132 10.7262 170.995 10.7262C172.166 10.603 173.336 10.5414 174.507 10.5414C175.678 10.4797 176.879 10.3565 178.112 10.1716C178.543 10.11 178.851 10.1716 179.036 10.3565C179.221 10.4797 179.313 10.757 179.313 11.1884C179.437 12.4824 179.529 13.7764 179.591 15.0704C179.652 16.3644 179.683 17.6584 179.683 18.9525C179.683 19.0757 179.714 19.1989 179.776 19.3222C179.776 19.507 179.806 19.6611 179.868 19.7843C179.868 20.2157 179.776 20.5546 179.591 20.8011C179.467 20.9859 179.159 21.1092 178.666 21.1708L176.078 21.3556C175.216 21.3556 174.384 21.3865 173.583 21.4481C172.967 21.5097 172.381 21.5405 171.827 21.5405C171.21 21.5405 170.625 21.5713 170.07 21.6329C169.886 21.6946 169.762 21.7562 169.701 21.8178C169.639 21.8794 169.608 22.0027 169.608 22.1875C169.855 26.1928 169.978 30.1981 169.978 34.2034C169.916 38.2703 169.947 42.3064 170.07 46.3116C170.07 51.118 170.132 55.9243 170.255 60.7306C170.379 65.5986 170.471 70.4358 170.533 75.2421C170.533 75.735 170.44 76.0123 170.255 76.0739C170.132 76.1972 169.824 76.2896 169.331 76.3512C167.914 76.3512 166.496 76.382 165.079 76.4437H160.643C160.211 76.4437 159.934 76.4128 159.811 76.3512C159.687 76.228 159.595 75.9507 159.533 75.5194V75.5194Z" fill="#FFC72C"/>
<path d="M208.891 55.2773L205.748 55.4621C204.762 55.5854 203.715 55.6162 202.606 55.5546C201.004 55.6162 199.371 55.647 197.707 55.647C196.043 55.7086 194.379 55.7086 192.716 55.647C192.284 55.647 192.038 55.7086 191.976 55.8319C191.915 55.8935 191.915 56.14 191.976 56.5713C192.408 58.1118 192.931 59.6215 193.548 61.1004C194.164 62.5176 194.934 63.8424 195.858 65.0748C196.351 65.8143 196.937 66.3688 197.614 66.7386C198.354 67.1699 199.124 67.4472 199.925 67.5704C200.233 67.6321 200.511 67.6012 200.757 67.478C200.942 67.3548 201.127 67.1699 201.312 66.9234C201.558 66.4921 201.712 66.0607 201.774 65.6294C201.897 65.2597 201.928 64.8284 201.866 64.3354V63.5035V62.5792C201.866 62.2711 201.928 62.0555 202.051 61.9322C202.113 61.809 202.298 61.7165 202.606 61.6549C203.776 61.5933 204.978 61.5009 206.21 61.3776L209.908 61.0079H210.739C211.048 60.9463 211.325 60.8847 211.571 60.8231C211.818 60.8231 212.064 60.8847 212.311 61.0079C212.496 61.0695 212.619 61.2544 212.68 61.5625C212.865 63.7192 212.804 65.7834 212.496 67.7553C212.126 69.7271 211.294 71.6065 210 73.3935C209.014 74.8107 207.843 75.9507 206.488 76.8134C205.132 77.6761 203.592 78.1998 201.866 78.3847H200.295C198.631 78.3847 197.06 78.169 195.581 77.7377C193.548 77.1215 191.668 76.1047 189.943 74.6875C188.341 73.2702 187.016 71.6989 185.968 69.9736C184.859 68.2482 183.935 66.4304 183.195 64.5202C182.518 62.8565 181.932 61.1003 181.439 59.2517C181.008 57.4648 180.669 55.647 180.423 53.7984C180.238 52.3811 180.145 50.9331 180.145 49.4542C180.084 48.9612 180.053 48.4683 180.053 47.9753C180.053 46.9894 180.084 46.0035 180.145 45.0176C180.268 42.5528 180.515 40.088 180.885 37.6232C181.316 35.22 182.025 32.8785 183.011 30.5986C183.996 28.1954 185.29 26.0695 186.893 24.2209C188.556 22.4339 190.621 21.0167 193.085 19.9691C194.749 19.2297 196.382 18.86 197.984 18.86C198.662 18.86 199.34 18.9216 200.018 19.0449C202.236 19.4762 204.362 20.4621 206.395 22.0026C208.552 23.728 210.339 25.7306 211.756 28.0105C213.112 30.2288 214.19 32.632 214.991 35.22C215.546 36.8222 215.977 38.4243 216.285 40.0264C216.655 41.6285 216.963 43.2614 217.21 44.9252L217.394 47.1435C217.456 47.8829 217.487 48.5915 217.487 49.2693V50.7482V51.8574L217.302 54.4454C217.24 54.6919 217.117 54.8459 216.932 54.9075C216.809 54.9692 216.655 55 216.47 55L212.588 55.1848C211.356 55.2464 210.123 55.2773 208.891 55.2773L208.891 55.2773ZM192.716 44.8327C194.01 44.8327 195.335 44.8019 196.69 44.7403C197.984 44.6787 199.309 44.6479 200.665 44.6479C201.466 44.7095 202.267 44.7095 203.068 44.6479C203.93 44.5246 204.793 44.4938 205.656 44.5555C205.902 44.5555 206.026 44.4938 206.026 44.3706V44.0009C205.717 42.3372 205.317 40.7042 204.824 39.1021C204.393 37.5 203.746 35.9903 202.883 34.5731C202.39 33.772 201.866 33.0018 201.312 32.2623C200.757 31.5229 200.079 30.9067 199.278 30.4137C198.847 30.044 198.415 29.8591 197.984 29.8591C197.553 29.8591 197.121 29.9824 196.69 30.2289C196.259 30.537 195.827 30.8759 195.396 31.2456C195.026 31.5537 194.688 31.9542 194.379 32.4472C193.27 34.1109 192.5 35.8979 192.069 37.8081C191.637 39.7183 191.329 41.6593 191.144 43.6312C191.083 44.309 191.114 44.6787 191.237 44.7403C191.422 44.8636 191.822 44.8944 192.438 44.8327H192.531C192.592 44.7711 192.654 44.7711 192.716 44.8327V44.8327Z" fill="#FFC72C"/>
<path d="M300.026 72.1919C300.088 72.3151 300.119 72.4692 300.119 72.6541C300.18 72.7773 300.211 72.9313 300.211 73.1162C300.211 73.3627 300.15 73.5475 300.026 73.6708C299.965 73.8556 299.811 73.9789 299.564 74.0405L295.128 75.1496C293.649 75.5194 292.201 75.8891 290.783 76.2588C290.599 76.3204 290.475 76.3512 290.414 76.3512C290.167 76.3512 289.982 76.2896 289.859 76.1664C289.674 75.9815 289.52 75.6426 289.397 75.1496C288.966 73.5475 288.565 71.9146 288.195 70.2509C287.764 68.5871 287.364 66.9542 286.994 65.3521C286.562 63.75 286.162 62.1787 285.792 60.6382C285.361 59.0361 284.96 57.4648 284.591 55.9243C284.529 55.6162 284.437 55.4313 284.313 55.3697C284.129 55.2465 283.913 55.1848 283.666 55.1848C281.448 55.2465 279.23 55.2465 277.011 55.1848C274.732 55.1848 272.482 55.2156 270.264 55.2773C268.6 55.3389 266.906 55.3697 265.18 55.3697H260.097C259.85 55.3697 259.665 55.4005 259.542 55.4621C259.419 55.5854 259.327 55.7394 259.265 55.9243C258.217 58.6972 257.17 61.4393 256.122 64.1505L252.98 72.2843C252.61 73.2086 252.302 73.7016 252.055 73.7632C251.809 73.8864 251.224 73.7632 250.299 73.3935L246.972 72.0995C245.801 71.6065 244.692 71.1443 243.644 70.713C243.028 70.4665 242.658 70.2201 242.535 69.9736C242.474 69.912 242.443 69.8195 242.443 69.6963C242.443 69.4498 242.504 69.1109 242.628 68.6796C243.305 67.0158 243.952 65.3213 244.569 63.5959C245.246 61.9322 245.893 60.2685 246.51 58.6047C248.235 54.1065 249.96 49.639 251.686 45.2024C253.349 40.7658 255.044 36.3292 256.769 31.8926C258.741 26.7165 260.713 21.5713 262.685 16.4568C264.657 11.3424 266.629 6.19715 268.6 1.02109C268.662 0.774608 268.785 0.589747 268.97 0.466507C269.155 0.343267 269.371 0.281647 269.617 0.281647C271.158 0.158407 272.698 0.0967865 274.239 0.0967865H275.44C277.412 0.158406 279.353 0.189224 281.263 0.189224C281.571 0.127604 281.787 0.220027 281.91 0.466507C281.972 0.651367 282.003 0.836228 282.003 1.02109C282.68 3.5475 283.327 6.07392 283.944 8.60033C284.621 11.1267 285.268 13.6531 285.885 16.1796C287.302 21.6021 288.688 27.0246 290.044 32.4472L294.111 48.7148C295.097 52.6584 296.083 56.5713 297.069 60.4533C298.055 64.3354 299.04 68.2482 300.026 72.1919V72.1919ZM277.751 28.9349C277.258 26.8398 276.734 24.7447 276.18 22.6496C275.687 20.493 275.132 18.3671 274.516 16.272C274.516 16.3336 274.485 16.4261 274.423 16.5493C274.362 16.6725 274.3 16.765 274.239 16.8266C273.376 19.1681 272.482 21.5097 271.558 23.8512C270.695 26.1928 269.802 28.5652 268.878 30.9683C268.077 33.0018 267.276 35.0968 266.474 37.2535L264.071 43.5387C263.886 43.8468 263.825 44.0317 263.886 44.0933C263.948 44.2166 264.164 44.2474 264.533 44.1857C265.026 44.1241 265.489 44.0933 265.92 44.0933H267.399C269.617 44.0317 271.835 44.0317 274.054 44.0933C276.334 44.0933 278.583 44.0625 280.801 44.0009C281.109 44.0009 281.325 43.9393 281.448 43.816C281.51 43.6928 281.479 43.5079 281.356 43.2614C280.739 40.8583 280.154 38.4859 279.599 36.1444L277.751 28.9349Z" fill="#FF6A13"/>
<path d="M342.821 53.8909V53.7984C342.821 53.7368 342.791 53.6444 342.729 53.5211C341.127 55.4313 339.463 57.2183 337.738 58.882C336.012 60.6074 334.133 62.0863 332.099 63.3187C330.559 64.243 328.988 64.9824 327.386 65.537C325.783 66.1532 324.089 66.5537 322.302 66.7386C320.207 66.9234 318.204 66.8002 316.294 66.3688C314.384 65.8759 312.566 64.9824 310.841 63.6884C309.239 62.3944 307.945 60.9155 306.959 59.2518C305.973 57.5264 305.264 55.647 304.833 53.6136C304.586 52.3812 304.463 51.1488 304.463 49.9164C304.463 48.3143 304.648 46.8046 305.018 45.3873C305.757 42.7993 306.959 40.3037 308.622 37.9005C310.656 35.066 313.059 32.6937 315.832 30.7834C318.666 28.8732 321.778 27.5176 325.167 26.7166C327.324 26.162 329.45 25.8847 331.545 25.8847C332.346 25.8847 333.178 25.9155 334.04 25.9771C336.937 26.2852 339.74 27.2095 342.452 28.75C342.636 28.8732 342.79 28.904 342.914 28.8424C342.975 28.8424 343.006 28.7192 343.006 28.4727C343.006 28.2879 343.099 28.1338 343.283 28.0106C343.407 27.8873 343.592 27.8257 343.838 27.8257C344.639 27.7025 345.44 27.61 346.241 27.5484C347.042 27.5484 347.843 27.5176 348.644 27.456C349.322 27.3327 350 27.2403 350.678 27.1787C351.356 27.1171 352.033 27.0863 352.711 27.0863C353.019 27.0246 353.266 27.0555 353.451 27.1787C353.636 27.3636 353.759 27.61 353.82 27.9181C353.944 28.9657 354.005 30.0132 354.005 31.0607C354.005 32.1083 353.944 33.1558 353.82 34.2034V34.7579V35.3125V39.934V44.5555C353.82 45.9111 353.79 47.2975 353.728 48.7148C353.666 50.0704 353.666 51.4569 353.728 52.8741C353.728 54.846 353.759 56.8178 353.82 58.7896V64.6127C353.882 65.7835 353.913 66.9542 353.913 68.125C353.974 69.2958 354.036 70.4357 354.098 71.5449L354.467 76.1664C354.591 77.7069 354.714 79.2166 354.837 80.6954C355.084 83.2218 355.453 85.6866 355.946 88.0898C356.378 90.5546 356.994 92.9577 357.795 95.2993C357.918 95.7922 358.103 96.2544 358.349 96.6857C358.596 97.1787 358.812 97.6408 358.996 98.0722C359.489 98.75 359.982 99.0273 360.475 98.9041C360.907 98.8424 361.307 98.596 361.677 98.1646C362.047 97.7333 362.386 97.2403 362.694 96.6857C362.94 96.1312 363.248 95.6074 363.618 95.1144C363.618 94.9912 363.649 94.8988 363.71 94.8372L363.895 94.4674C364.019 94.2826 364.173 94.1593 364.357 94.0977C364.542 94.0361 364.758 94.0669 365.004 94.1902C366.298 94.868 367.623 95.4841 368.979 96.0387C370.396 96.5933 371.783 97.1787 373.138 97.7949C373.446 97.9181 373.662 98.0722 373.785 98.257C373.908 98.3187 373.939 98.4111 373.878 98.5343C373.878 98.6576 373.847 98.7808 373.785 98.9041C372.923 100.691 371.998 102.416 371.012 104.08C369.965 105.682 368.517 107.007 366.668 108.055C365.621 108.732 364.511 109.225 363.341 109.533C362.416 109.78 361.461 109.903 360.475 109.903H359.643C357.548 109.78 355.7 109.225 354.098 108.239C352.557 107.254 351.202 105.898 350.031 104.173C349.107 102.879 348.367 101.492 347.813 100.013C347.258 98.4727 346.765 96.9322 346.334 95.3917C345.902 93.6048 345.502 91.787 345.132 89.9384C344.762 88.0898 344.485 86.2104 344.3 84.3002L343.746 80.2333C343.622 78.816 343.53 77.4296 343.468 76.0739C343.407 74.9648 343.314 73.8248 343.191 72.6541L343.006 69.1417C342.883 66.6153 342.821 64.0889 342.821 61.5625L342.821 53.8909ZM338.662 39.287C337.614 38.4859 336.505 37.9005 335.335 37.5308C334.164 37.0995 332.839 36.9146 331.36 36.9762C330.867 36.9146 330.343 36.9146 329.789 36.9762C329.234 37.0378 328.68 37.1303 328.125 37.2535C325.66 37.8697 323.504 38.8556 321.655 40.2113C319.745 41.5053 318.143 43.2306 316.849 45.3873C316.171 46.5581 315.739 47.7597 315.555 48.9921C315.37 50.1629 315.524 51.3952 316.017 52.6893C316.386 53.7368 317.003 54.5378 317.865 55.0924C318.728 55.647 319.652 55.8935 320.638 55.8319C321.378 55.7702 322.117 55.647 322.857 55.4621C323.596 55.2157 324.335 54.9384 325.075 54.6303C326.307 54.0141 327.416 53.3055 328.402 52.5044C329.45 51.6417 330.436 50.7174 331.36 49.7315C332.839 48.3143 334.195 46.8046 335.427 45.2025C336.598 43.5387 337.707 41.8442 338.754 40.1188C338.939 39.934 339.032 39.7799 339.032 39.6567C338.97 39.5334 338.847 39.4102 338.662 39.287L338.662 39.287Z" fill="#FF6A13"/>
<path d="M392.641 66.4613C392.579 66.0916 392.548 65.7218 392.548 65.3521C392.487 64.9824 392.425 64.5819 392.364 64.1505C391.686 65.0132 390.977 65.7835 390.238 66.4613C389.498 67.2007 388.728 67.8477 387.927 68.4023C384.784 70.6206 381.457 71.5449 377.945 71.1752C374.371 70.8055 371.228 69.3266 368.517 66.7386C366.915 65.1981 365.559 63.4727 364.45 61.5625C363.402 59.6523 362.54 57.6497 361.862 55.5546C360.999 52.9666 360.352 50.3477 359.921 47.6981C359.489 45.0484 359.243 42.3988 359.181 39.7491C359.181 38.0854 359.243 36.4525 359.366 34.8504C359.489 33.2483 359.705 31.6153 360.013 29.9516C360.075 29.5203 360.198 29.243 360.383 29.1197C360.568 28.9965 360.876 28.9657 361.307 29.0273L365.559 29.7667C366.976 30.0132 368.424 30.2597 369.903 30.5062C370.211 30.5062 370.427 30.5678 370.55 30.691C370.673 30.8143 370.735 31.0608 370.735 31.4305C370.673 31.9234 370.612 32.4472 370.55 33.0018C370.489 33.4947 370.427 34.0185 370.365 34.5731C370.304 35.8055 370.242 37.0071 370.18 38.1778C370.18 39.4102 370.211 40.6118 370.273 41.7826C370.335 42.8301 370.427 43.816 370.55 44.7403C370.612 45.7262 370.735 46.6814 370.92 47.6057C371.351 49.4542 371.875 51.2412 372.491 52.9666C373.107 54.7535 374.001 56.4481 375.172 58.0502L376.096 58.9745C376.466 59.2826 376.835 59.5599 377.205 59.8064C377.883 60.2377 378.53 60.4226 379.146 60.3609C379.762 60.3609 380.409 60.1761 381.087 59.8064C382.073 59.1902 382.905 58.4199 383.583 57.4956C384.322 56.633 384.969 55.7087 385.524 54.7227C386.51 52.8741 387.311 50.9947 387.927 49.0845C388.543 47.1127 389.036 45.1101 389.406 43.0766C389.714 41.2896 389.899 39.5335 389.96 37.8081C390.022 36.0212 390.022 34.265 389.96 32.5396V31.4305C389.899 31.1224 389.837 30.7835 389.776 30.4138C389.776 30.1057 389.837 29.8592 389.96 29.6743C390.084 29.5511 390.269 29.4587 390.515 29.397C391.439 29.3354 392.364 29.243 393.288 29.1197C394.151 29.0581 395.044 28.9657 395.968 28.8425L397.632 28.6576C398.187 28.6576 398.772 28.596 399.388 28.4727H399.573C399.943 28.4727 400.22 28.5344 400.405 28.6576C400.59 28.8425 400.713 29.1506 400.775 29.5819C401.391 37.1611 401.976 44.7712 402.531 52.412C403.147 59.9912 403.732 67.5704 404.287 75.1497V75.3345C404.287 76.1972 403.609 76.6285 402.254 76.6285C400.836 76.6285 399.758 76.6594 399.018 76.721L396.8 76.9059C396.122 76.9675 395.383 76.9983 394.582 76.9983C394.459 77.0599 394.366 77.0907 394.305 77.0907C394.058 77.0291 393.873 76.9675 393.75 76.9059C393.565 76.7826 393.411 76.5361 393.288 76.1664C393.226 75.8583 393.195 75.5194 393.195 75.1497V74.1329C393.072 72.8389 392.98 71.5449 392.918 70.2509C392.795 68.9569 392.702 67.6937 392.641 66.4613V66.4613Z" fill="#FF6A13"/>
<path d="M420 32.1699V42.8917V53.5211H419.908V64.4278V75.3345C419.908 76.1356 419.815 76.6285 419.63 76.8134C419.507 76.9366 419.014 76.9982 418.151 76.9982H414.362C413.068 76.9982 411.774 76.9674 410.48 76.9058C409.802 76.9058 409.371 76.8134 409.186 76.6285C409.001 76.5053 408.939 76.1047 409.001 75.4269C409.001 73.0854 408.97 70.7746 408.908 68.4947C408.908 66.2148 408.939 63.9349 409.001 61.6549C409.063 56.787 409.093 51.919 409.093 47.0511C409.032 42.1831 409.032 37.3151 409.093 32.4472V31.5229C409.093 31.2148 409.124 30.9375 409.186 30.691C409.247 30.3213 409.34 30.0748 409.463 29.9516C409.648 29.8283 409.864 29.7667 410.11 29.7667H412.236H414.362H416.58H418.798C419.107 29.7667 419.353 29.8283 419.538 29.9516C419.723 30.0748 419.846 30.3521 419.908 30.7834V31.4305C419.969 31.6769 420 31.9234 420 32.1699H420ZM413.9 25.1452H411.774H409.648C409.217 25.1452 408.908 25.0528 408.724 24.868C408.6 24.7447 408.539 24.4674 408.539 24.0361V19.9692V15.9947C408.539 15.6866 408.6 15.471 408.724 15.3477C408.847 15.2245 409.063 15.1629 409.371 15.1629H409.463C410.942 15.1012 412.421 15.0704 413.9 15.0704H418.244C418.305 15.0088 418.398 14.978 418.521 14.978C418.768 14.978 418.952 15.0396 419.076 15.1629C419.199 15.3477 419.261 15.625 419.261 15.9947C419.261 17.2887 419.291 18.6136 419.353 19.9692C419.415 21.2632 419.415 22.588 419.353 23.9437C419.353 24.4366 419.291 24.7447 419.168 24.868C419.045 24.9912 418.768 25.0528 418.336 25.0528H416.118H413.9V25.1452Z" fill="#FF6A13"/>
</svg>
